<svg aria-hidden="true" style="position: absolute; width: 0; height: 0; overflow: hidden;"
    version="1.1" xmlns="http://www.w3.org/2000/svg" xmlns:xlink="http://www.w3.org/1999/xlink">
    <defs>
        <symbol id="icon-android" viewBox="0 0 28 32">
            <path fill="#e1e3e9" style="fill: var(--color1, #e1e3e9)"
                d="M2.159 10.738c-0.542 0-1.002 0.189-1.379 0.567s-0.567 0.831-0.567 1.361v8.127c0 0.543 0.189 1.002 0.567 1.38s0.838 0.567 1.379 0.567c0.541 0 0.998-0.189 1.37-0.567s0.558-0.837 0.558-1.38v-8.127c0-0.529-0.189-0.983-0.567-1.361s-0.832-0.567-1.361-0.567z"></path>
            <path fill="#e1e3e9" style="fill: var(--color1, #e1e3e9)"
                d="M17.807 3.443l1.342-2.475c0.088-0.164 0.057-0.29-0.094-0.378-0.164-0.076-0.29-0.038-0.378 0.113l-1.361 2.495c-1.197-0.529-2.464-0.795-3.799-0.795s-2.602 0.265-3.799 0.795l-1.361-2.495c-0.088-0.151-0.214-0.189-0.378-0.113-0.151 0.089-0.183 0.214-0.094 0.378l1.342 2.475c-1.361 0.694-2.444 1.66-3.251 2.901s-1.21 2.599-1.21 4.073h17.481c0-1.474-0.403-2.831-1.21-4.073s-1.884-2.207-3.232-2.901zM10.049 7.044c-0.145 0.145-0.318 0.218-0.52 0.218s-0.372-0.072-0.51-0.218c-0.139-0.145-0.208-0.317-0.208-0.52s0.069-0.374 0.208-0.52c0.139-0.145 0.309-0.217 0.51-0.217s0.375 0.072 0.52 0.217c0.145 0.145 0.217 0.318 0.217 0.52s-0.073 0.375-0.217 0.52zM18.015 7.044c-0.139 0.145-0.309 0.218-0.51 0.218s-0.375-0.072-0.52-0.218c-0.145-0.145-0.218-0.317-0.218-0.52s0.072-0.374 0.218-0.52c0.145-0.145 0.318-0.217 0.52-0.217s0.371 0.072 0.51 0.217c0.139 0.145 0.208 0.318 0.208 0.52s-0.069 0.375-0.208 0.52z"></path>
            <path fill="#e1e3e9" style="fill: var(--color1, #e1e3e9)"
                d="M4.843 23.684c0 0.58 0.201 1.071 0.604 1.474s0.894 0.604 1.474 0.604h1.399l0.019 4.291c0 0.542 0.189 1.002 0.567 1.38s0.832 0.567 1.361 0.567c0.541 0 1.002-0.189 1.38-0.567s0.567-0.838 0.567-1.38v-4.29h2.608v4.29c0 0.542 0.189 1.002 0.567 1.38s0.838 0.567 1.379 0.567c0.542 0 1.002-0.189 1.38-0.567s0.567-0.838 0.567-1.38v-4.29h1.418c0.567 0 1.052-0.201 1.455-0.604s0.604-0.894 0.604-1.474v-12.587h-17.348v12.587z"></path>
            <path fill="#e1e3e9" style="fill: var(--color1, #e1e3e9)"
                d="M24.876 10.738c-0.529 0-0.983 0.186-1.361 0.557s-0.567 0.829-0.567 1.37v8.127c0 0.543 0.189 1.002 0.567 1.38s0.832 0.567 1.361 0.567c0.541 0 1.002-0.189 1.379-0.567s0.567-0.837 0.567-1.38v-8.127c0-0.541-0.189-0.998-0.567-1.37s-0.838-0.557-1.379-0.557z"></path>
        </symbol>
        <symbol id="icon-apple" viewBox="0 0 32 32">
            <path fill="#e1e3e9" style="fill: var(--color1, #e1e3e9)"
                d="M21.169 0.571c-1.75 0.118-3.623 1.16-4.783 2.565-1.015 1.237-1.866 3.052-1.543 4.937-0.289-0.089-0.552-0.099-0.868-0.212-0.861-0.306-1.844-0.636-3.066-0.636-2.428 0-4.913 1.444-6.48 3.857-2.281 3.505-1.822 9.674 1.639 14.946 0.61 0.926 1.321 1.936 2.199 2.739s1.938 1.415 3.182 1.427c1.063 0.012 1.803-0.342 2.469-0.636s1.285-0.554 2.449-0.559c0.007 0 0.012 0 0.019 0 1.16-0.010 1.76 0.246 2.411 0.54s1.384 0.665 2.449 0.656c1.268-0.010 2.346-0.704 3.24-1.562s1.63-1.912 2.237-2.835c0.87-1.326 1.22-2.049 1.89-3.529 0.070-0.154 0.072-0.333 0.005-0.489-0.065-0.157-0.193-0.28-0.352-0.34-2.194-0.829-3.445-2.77-3.626-4.821s0.687-4.163 2.874-5.361c0.162-0.087 0.275-0.239 0.313-0.417 0.036-0.178-0.007-0.366-0.121-0.509-1.569-1.95-3.778-3.105-5.94-3.105-1.379 0-2.391 0.325-3.221 0.636-0.137 0.053-0.239 0.048-0.366 0.096 0.841-0.444 1.584-1.058 2.141-1.774 1.012-1.299 1.794-3.148 1.504-5.091-0.048-0.318-0.335-0.545-0.656-0.521zM20.513 2.037c-0.041 1.246-0.468 2.466-1.176 3.375-0.742 0.955-1.991 1.615-3.201 1.813 0.022-1.198 0.494-2.44 1.215-3.317 0.757-0.916 2.011-1.577 3.163-1.871zM10.909 8.459c0.996 0 1.794 0.258 2.642 0.559s1.743 0.656 2.796 0.656c1.029 0 1.844-0.357 2.642-0.656s1.593-0.559 2.777-0.559c1.545 0 3.216 0.803 4.532 2.199-2.107 1.487-3.093 3.806-2.893 6.056 0.2 2.273 1.569 4.431 3.819 5.554-0.487 1.061-0.808 1.762-1.524 2.854-0.591 0.899-1.292 1.883-2.064 2.623s-1.589 1.208-2.411 1.215c-0.793 0.007-1.244-0.229-1.929-0.54s-1.569-0.668-2.931-0.656c-1.36 0.007-2.256 0.35-2.951 0.656s-1.15 0.547-1.948 0.54c-0.844-0.007-1.627-0.417-2.372-1.099s-1.418-1.613-2.006-2.507c-3.24-4.937-3.5-10.737-1.639-13.596 1.364-2.1 3.532-3.298 5.458-3.298z"></path>
        </symbol>
        <symbol id="icon-cross" viewBox="0 0 32 32">
            <path
                d="M31.708 25.708c-0-0-0-0-0-0l-9.708-9.708 9.708-9.708c0-0 0-0 0-0 0.105-0.105 0.18-0.227 0.229-0.357 0.133-0.356 0.057-0.771-0.229-1.057l-4.586-4.586c-0.286-0.286-0.702-0.361-1.057-0.229-0.13 0.048-0.252 0.124-0.357 0.228 0 0-0 0-0 0l-9.708 9.708-9.708-9.708c-0-0-0-0-0-0-0.105-0.104-0.227-0.18-0.357-0.228-0.356-0.133-0.771-0.057-1.057 0.229l-4.586 4.586c-0.286 0.286-0.361 0.702-0.229 1.057 0.049 0.13 0.124 0.252 0.229 0.357 0 0 0 0 0 0l9.708 9.708-9.708 9.708c-0 0-0 0-0 0-0.104 0.105-0.18 0.227-0.229 0.357-0.133 0.355-0.057 0.771 0.229 1.057l4.586 4.586c0.286 0.286 0.702 0.361 1.057 0.229 0.13-0.049 0.252-0.124 0.357-0.229 0-0 0-0 0-0l9.708-9.708 9.708 9.708c0 0 0 0 0 0 0.105 0.105 0.227 0.18 0.357 0.229 0.356 0.133 0.771 0.057 1.057-0.229l4.586-4.586c0.286-0.286 0.362-0.702 0.229-1.057-0.049-0.13-0.124-0.252-0.229-0.357z"></path>
        </symbol>
        <symbol id="icon-paragraph-right" viewBox="0 0 32 32">
            <path d="M0 2h32v4h-32zM12 8h20v4h-20zM12 20h20v4h-20zM0 14h32v4h-32zM0 26h32v4h-32z"></path>
        </symbol>
    </defs>
</svg>